<?xml version="1.0" encoding="UTF-8"?>
<svg xmlns="http://www.w3.org/2000/svg" version="1.1" viewBox="-2 5 150 30"> <g id="wordmark"><path fill="#080c16" d="M8.40 30.36L8.40 30.36Q5.46 30.36 3.74 28.72Q2.02 27.08 2.02 24.31L2.02 24.31L2.02 15.41Q2.02 12.64 3.74 11.00Q5.46 9.36 8.40 9.36L8.40 9.36Q11.34 9.36 13.06 11.00Q14.78 12.64 14.78 15.38L14.78 15.38L14.78 24.31Q14.78 27.08 13.06 28.72Q11.34 30.36 8.40 30.36ZM8.40 27.28L8.40 27.28Q9.83 27.28 10.56 26.51Q11.28 25.74 11.28 24.31L11.28 24.31L11.28 15.41Q11.28 13.98 10.56 13.21Q9.83 12.44 8.40 12.44L8.40 12.44Q6.97 12.44 6.24 13.21Q5.52 13.98 5.52 15.41L5.52 15.41L5.52 24.31Q5.52 25.74 6.24 26.51Q6.97 27.28 8.40 27.28Z"/><path fill="#080c16" d="M20.94 30.08L17.67 30.08L17.67 9.64L21.81 9.64L23.77 16.14Q24.08 17.12 24.26 17.91Q24.44 18.71 24.50 19.10L24.50 19.10Q24.56 18.71 24.74 17.91Q24.92 17.12 25.23 16.14L25.23 16.14L27.16 9.64L31.33 9.64L31.33 30.08L28.06 30.08L28.06 21.48Q28.06 18.66 28.28 16.23Q28.50 13.81 28.78 11.63L28.78 11.63L26.01 21.29L22.96 21.29L20.16 11.82Q20.44 13.78 20.69 16.12Q20.94 18.46 20.94 21.48L20.94 21.48L20.94 30.08Z"/><path fill="#080c16" d="M37.41 30.08L34.22 30.08L34.22 9.64L38.50 9.64L44.18 26.16Q44.10 25.26 44.02 24.05Q43.93 22.83 43.86 21.57Q43.79 20.31 43.79 19.33L43.79 19.33L43.79 9.64L46.98 9.64L46.98 30.08L42.70 30.08L37.07 13.56Q37.13 14.37 37.21 15.52Q37.30 16.67 37.35 17.87Q37.41 19.08 37.41 20.08L37.41 20.08L37.41 30.08Z"/><path fill="#080c16" d="M62.58 30.08L50.82 30.08L50.82 26.92L54.94 26.92L54.94 12.80L50.82 12.80L50.82 9.64L62.58 9.64L62.58 12.80L58.46 12.80L58.46 26.92L62.58 26.92L62.58 30.08Z"/><path fill="#21CAB9" d="M72.91 30.36L72.91 30.36Q70.92 30.36 69.47 29.62Q68.01 28.88 67.21 27.52Q66.42 26.16 66.42 24.31L66.42 24.31L66.42 15.41Q66.42 13.56 67.21 12.20Q68.01 10.84 69.47 10.10Q70.92 9.36 72.91 9.36L72.91 9.36Q74.87 9.36 76.33 10.10Q77.78 10.84 78.60 12.20Q79.41 13.56 79.41 15.41L79.41 15.41L75.88 15.41Q75.88 13.98 75.11 13.21Q74.34 12.44 72.91 12.44L72.91 12.44Q71.48 12.44 70.70 13.20Q69.92 13.95 69.92 15.38L69.92 15.38L69.92 24.31Q69.92 25.74 70.70 26.52Q71.48 27.31 72.91 27.31L72.91 27.31Q74.34 27.31 75.11 26.52Q75.88 25.74 75.88 24.31L75.88 24.31L75.88 22.24L72.41 22.24L72.41 19.22L79.41 19.22L79.41 24.31Q79.41 26.16 78.60 27.52Q77.78 28.88 76.33 29.62Q74.87 30.36 72.91 30.36Z"/><path fill="#21CAB9" d="M96.07 30.08L83.89 30.08L83.89 9.64L87.39 9.64L87.39 26.92L96.07 26.92L96.07 30.08Z"/><path fill="#21CAB9" d="M101.16 30.08L97.58 30.08L102.73 9.64L107.24 9.64L112.42 30.08L108.84 30.08L107.72 25.12L102.28 25.12L101.16 30.08ZM104.16 16.75L102.93 22.27L107.07 22.27L105.84 16.78Q105.53 15.41 105.31 14.30Q105.08 13.20 105.00 12.69L105.00 12.69Q104.92 13.20 104.69 14.30Q104.47 15.41 104.16 16.75L104.16 16.75Z"/><path fill="#21CAB9" d="M121.16 30.36L121.16 30.36Q119.06 30.36 117.53 29.65Q116.00 28.93 115.15 27.63Q114.30 26.33 114.30 24.56L114.30 24.56L117.80 24.56Q117.80 25.82 118.72 26.57Q119.64 27.31 121.18 27.31L121.18 27.31Q122.70 27.31 123.55 26.58Q124.40 25.85 124.40 24.59L124.40 24.59Q124.40 23.56 123.82 22.81Q123.23 22.07 122.19 21.79L122.19 21.79L119.73 21.12Q117.35 20.48 116.03 18.89Q114.72 17.31 114.72 15.07L114.72 15.07Q114.72 12.47 116.45 10.91Q118.19 9.36 121.13 9.36L121.13 9.36Q124.10 9.36 125.85 10.89Q127.60 12.41 127.60 14.99L127.60 14.99L124.10 14.99Q124.10 13.81 123.30 13.11Q122.50 12.41 121.10 12.41L121.10 12.41Q119.73 12.41 118.96 13.10Q118.19 13.78 118.19 15.02L118.19 15.02Q118.19 15.97 118.76 16.67Q119.34 17.37 120.43 17.65L120.43 17.65L122.92 18.35Q125.30 18.99 126.60 20.57Q127.90 22.16 127.90 24.48L127.90 24.48Q127.90 26.24 127.06 27.57Q126.22 28.90 124.71 29.63Q123.20 30.36 121.16 30.36Z"/><path fill="#21CAB9" d="M137.26 30.36L137.26 30.36Q135.16 30.36 133.63 29.65Q132.10 28.93 131.25 27.63Q130.40 26.33 130.40 24.56L130.40 24.56L133.90 24.56Q133.90 25.82 134.82 26.57Q135.74 27.31 137.28 27.31L137.28 27.31Q138.80 27.31 139.65 26.58Q140.50 25.85 140.50 24.59L140.50 24.59Q140.50 23.56 139.92 22.81Q139.33 22.07 138.29 21.79L138.29 21.79L135.83 21.12Q133.45 20.48 132.13 18.89Q130.82 17.31 130.82 15.07L130.82 15.07Q130.82 12.47 132.55 10.91Q134.29 9.36 137.23 9.36L137.23 9.36Q140.20 9.36 141.95 10.89Q143.70 12.41 143.70 14.99L143.70 14.99L140.20 14.99Q140.20 13.81 139.40 13.11Q138.60 12.41 137.20 12.41L137.20 12.41Q135.83 12.41 135.06 13.10Q134.29 13.78 134.29 15.02L134.29 15.02Q134.29 15.97 134.86 16.67Q135.44 17.37 136.53 17.65L136.53 17.65L139.02 18.35Q141.40 18.99 142.70 20.57Q144.00 22.16 144.00 24.48L144.00 24.48Q144.00 26.24 143.16 27.57Q142.32 28.90 140.81 29.63Q139.30 30.36 137.26 30.36Z"/></g> </svg>
