<?xml version="1.0" encoding="UTF-8"?>
<svg xmlns="http://www.w3.org/2000/svg" version="1.1" viewBox="-3 -3 166 166"> <rect x="0" y="0" width="160" height="160" rx="16" fill="#080c16"/><defs> <mask id="m-og-favicon"> <rect x="0" y="0" width="160" height="160" fill="white"/> <g fill="black">  <circle cx="80" cy="22" r="7" stroke-width="1"/> <circle cx="24" cy="128" r="7" stroke-width="1"/> <circle cx="136" cy="128" r="7" stroke-width="1"/>  <circle cx="80" cy="93" r="13" stroke-width="1"/> </g> </mask> </defs>    <g mask="url(#m-og-favicon)"> <line x1="80" y1="22" x2="24" y2="128" stroke="#21CAB9" stroke-linecap="round" stroke-width="7"/> <line x1="80" y1="22" x2="136" y2="128" stroke="#21CAB9" stroke-linecap="round" stroke-width="7"/> <line x1="24" y1="128" x2="136" y2="128" stroke="#21CAB9" stroke-linecap="round" stroke-width="7"/>  <line x1="80" y1="93" x2="80" y2="22" stroke="#21CAB9" stroke-linecap="round" stroke-width="4"/> <line x1="80" y1="93" x2="24" y2="128" stroke="#21CAB9" stroke-linecap="round" stroke-width="4"/> <line x1="80" y1="93" x2="136" y2="128" stroke="#21CAB9" stroke-linecap="round" stroke-width="4"/> </g>  <circle cx="80" cy="22" fill="none" stroke="#21CAB9" r="9" stroke-width="4"/> <circle cx="24" cy="128" fill="none" stroke="#21CAB9" r="9" stroke-width="4"/> <circle cx="136" cy="128" fill="none" stroke="#21CAB9" r="9" stroke-width="4"/>  <circle cx="80" cy="93" fill="none" stroke="#21CAB9" r="15" stroke-width="4"/> <circle cx="80" cy="93" fill="#21CAB9" r="9" stroke-width="1"/> </svg>
